<svg width="32" height="32" viewBox="0 0 32 32" fill="none" xmlns="http://www.w3.org/2000/svg">
<mask id="mask0_20_308" style="mask-type:alpha" maskUnits="userSpaceOnUse" x="0" y="0" width="32" height="32">
<path d="M32 16C32 16.3536 31.8595 16.6928 31.6095 16.9428C31.3594 17.1929 31.0203 17.3333 30.6667 17.3333C30.313 17.3333 29.9739 17.1929 29.7239 16.9428C29.4738 16.6928 29.3333 16.3536 29.3333 16C29.3295 12.465 27.9234 9.07584 25.4238 6.5762C22.9242 4.07655 19.535 2.67055 16 2.66667C15.6464 2.66667 15.3072 2.52619 15.0572 2.27614C14.8071 2.02609 14.6667 1.68696 14.6667 1.33333C14.6667 0.979711 14.8071 0.640573 15.0572 0.390524C15.3072 0.140476 15.6464 0 16 0C20.2421 0.00458811 24.3091 1.69177 27.3086 4.69136C30.3082 7.69095 31.9954 11.7579 32 16ZM21.3333 17.3333C21.687 17.3333 22.0261 17.1929 22.2761 16.9428C22.5262 16.6928 22.6667 16.3536 22.6667 16C22.6667 15.6464 22.5262 15.3072 22.2761 15.0572C22.0261 14.8071 21.687 14.6667 21.3333 14.6667H18.2973C18.065 14.2672 17.7328 13.935 17.3333 13.7027V9.33333C17.3333 8.97971 17.1929 8.64057 16.9428 8.39052C16.6928 8.14048 16.3536 8 16 8C15.6464 8 15.3072 8.14048 15.0572 8.39052C14.8071 8.64057 14.6667 8.97971 14.6667 9.33333V13.7027C14.313 13.9063 14.011 14.1886 13.784 14.5277C13.557 14.8668 13.4111 15.2536 13.3576 15.6581C13.3041 16.0627 13.3444 16.4741 13.4755 16.8606C13.6065 17.247 13.8248 17.5981 14.1133 17.8867C14.4019 18.1752 14.753 18.3935 15.1394 18.5245C15.5259 18.6556 15.9373 18.6959 16.3419 18.6424C16.7464 18.5889 17.1332 18.443 17.4723 18.216C17.8114 17.989 18.0937 17.687 18.2973 17.3333H21.3333ZM2.43599 9.04533C2.17229 9.04533 1.91449 9.12353 1.69519 9.27004C1.47599 9.41655 1.30509 9.62479 1.20419 9.86842C1.10319 10.1121 1.07679 10.3801 1.12829 10.6388C1.17969 10.8974 1.30669 11.135 1.49319 11.3215C1.67969 11.5079 1.91719 11.6349 2.17589 11.6864C2.43449 11.7378 2.70259 11.7114 2.94619 11.6105C3.18989 11.5096 3.39809 11.3387 3.54459 11.1194C3.69109 10.9002 3.76929 10.6424 3.76929 10.3787C3.76929 10.025 3.62889 9.68591 3.37879 9.43586C3.12879 9.18581 2.78959 9.04533 2.43599 9.04533ZM2.66669 16C2.66669 15.7363 2.58849 15.4785 2.44199 15.2592C2.29549 15.04 2.08719 14.8691 1.84359 14.7682C1.59989 14.6672 1.33189 14.6408 1.07319 14.6923C0.814589 14.7437 0.576989 14.8707 0.390489 15.0572C0.204089 15.2437 0.0770892 15.4812 0.0255892 15.7399C-0.0258108 15.9985 0.000588335 16.2666 0.101488 16.5102C0.202388 16.7539 0.373289 16.9621 0.592589 17.1086C0.811789 17.2551 1.06959 17.3333 1.33329 17.3333C1.68699 17.3333 2.02609 17.1929 2.27609 16.9428C2.52619 16.6928 2.66669 16.3536 2.66669 16ZM16 29.3333C15.7363 29.3333 15.4785 29.4115 15.2592 29.558C15.04 29.7045 14.8691 29.9128 14.7682 30.1564C14.6672 30.4001 14.6408 30.6681 14.6923 30.9268C14.7437 31.1854 14.8707 31.423 15.0572 31.6095C15.2437 31.7959 15.4812 31.9229 15.7399 31.9744C15.9985 32.0258 16.2666 31.9994 16.5102 31.8985C16.7539 31.7976 16.9621 31.6267 17.1086 31.4074C17.2551 31.1882 17.3333 30.9304 17.3333 30.6667C17.3333 30.313 17.1929 29.9739 16.9428 29.7239C16.6928 29.4738 16.3536 29.3333 16 29.3333ZM5.62799 4.276C5.36429 4.276 5.10649 4.3542 4.88719 4.50071C4.66799 4.64722 4.49709 4.85545 4.39619 5.09909C4.29519 5.34272 4.26879 5.61081 4.32029 5.86945C4.37169 6.1281 4.49869 6.36567 4.68519 6.55214C4.87169 6.73861 5.10919 6.8656 5.36789 6.91705C5.62649 6.96849 5.89459 6.94209 6.13819 6.84117C6.38189 6.74026 6.59009 6.56936 6.73659 6.35009C6.88309 6.13083 6.96129 5.87304 6.96129 5.60933C6.96129 5.25571 6.82089 4.91657 6.57079 4.66652C6.32079 4.41648 5.98159 4.276 5.62799 4.276ZM10.372 1.12133C10.1083 1.12133 9.85049 1.19953 9.63119 1.34604C9.41199 1.49255 9.24109 1.70079 9.14019 1.94442C9.03919 2.18806 9.01279 2.45615 9.06429 2.71479C9.11569 2.97343 9.24269 3.21101 9.42919 3.39748C9.61569 3.58395 9.85319 3.71093 10.1119 3.76238C10.3705 3.81383 10.6386 3.78742 10.8822 3.68651C11.1259 3.58559 11.3341 3.41469 11.4806 3.19543C11.6271 2.97616 11.7053 2.71838 11.7053 2.45467C11.7053 2.10104 11.5649 1.76191 11.3148 1.51186C11.0648 1.26181 10.7256 1.12133 10.372 1.12133ZM2.43599 20.288C2.17229 20.288 1.91449 20.3662 1.69519 20.5127C1.47599 20.6592 1.30509 20.8675 1.20419 21.1111C1.10319 21.3547 1.07679 21.6228 1.12829 21.8815C1.17969 22.1401 1.30669 22.3777 1.49319 22.5641C1.67969 22.7506 1.91719 22.8776 2.17589 22.929C2.43449 22.9805 2.70259 22.9541 2.94619 22.8532C3.18989 22.7523 3.39809 22.5814 3.54459 22.3621C3.69109 22.1428 3.76929 21.885 3.76929 21.6213C3.76929 21.2677 3.62889 20.9286 3.37879 20.6785C3.12879 20.4285 2.78959 20.288 2.43599 20.288ZM5.62799 25.0573C5.36429 25.0573 5.10649 25.1355 4.88719 25.282C4.66799 25.4286 4.49709 25.6368 4.39619 25.8804C4.29519 26.1241 4.26879 26.3921 4.32029 26.6508C4.37169 26.9094 4.49869 27.147 4.68519 27.3335C4.87169 27.5199 5.10919 27.6469 5.36789 27.6984C5.62649 27.7498 5.89459 27.7234 6.13819 27.6225C6.38189 27.5216 6.59009 27.3507 6.73659 27.1314C6.88309 26.9122 6.96129 26.6544 6.96129 26.3907C6.96129 26.037 6.82089 25.6979 6.57079 25.4479C6.32079 25.1978 5.98159 25.0573 5.62799 25.0573ZM10.372 28.212C10.1083 28.212 9.85049 28.2902 9.63119 28.4367C9.41199 28.5832 9.24109 28.7915 9.14019 29.0351C9.03919 29.2787 9.01279 29.5468 9.06429 29.8055C9.11569 30.0641 9.24269 30.3017 9.42919 30.4881C9.61569 30.6746 9.85319 30.8016 10.1119 30.853C10.3705 30.9045 10.6386 30.8781 10.8822 30.7772C11.1259 30.6763 11.3341 30.5054 11.4806 30.2861C11.6271 30.0668 11.7053 29.809 11.7053 29.5453C11.7053 29.1917 11.5649 28.8526 11.3148 28.6025C11.0648 28.3525 10.7256 28.212 10.372 28.212ZM29.564 20.288C29.3003 20.288 29.0425 20.3662 28.8232 20.5127C28.604 20.6592 28.4331 20.8675 28.3322 21.1111C28.2312 21.3547 28.2048 21.6228 28.2563 21.8815C28.3077 22.1401 28.4347 22.3777 28.6212 22.5641C28.8077 22.7506 29.0452 22.8776 29.3039 22.929C29.5625 22.9805 29.8306 22.9541 30.0742 22.8532C30.3179 22.7523 30.5261 22.5814 30.6726 22.3621C30.8191 22.1428 30.8973 21.885 30.8973 21.6213C30.8973 21.2677 30.7569 20.9286 30.5068 20.6785C30.2568 20.4285 29.9176 20.288 29.564 20.288ZM26.372 25.0573C26.1083 25.0573 25.8505 25.1355 25.6312 25.282C25.412 25.4286 25.2411 25.6368 25.1402 25.8804C25.0392 26.1241 25.0128 26.3921 25.0643 26.6508C25.1157 26.9094 25.2427 27.147 25.4292 27.3335C25.6157 27.5199 25.8532 27.6469 26.1119 27.6984C26.3705 27.7498 26.6386 27.7234 26.8822 27.6225C27.1259 27.5216 27.3341 27.3507 27.4806 27.1314C27.6271 26.9122 27.7053 26.6544 27.7053 26.3907C27.7053 26.037 27.5649 25.6979 27.3148 25.4479C27.0648 25.1978 26.7256 25.0573 26.372 25.0573ZM21.628 28.212C21.3643 28.212 21.1065 28.2902 20.8872 28.4367C20.668 28.5832 20.4971 28.7915 20.3962 29.0351C20.2952 29.2787 20.2688 29.5468 20.3203 29.8055C20.3717 30.0641 20.4987 30.3017 20.6852 30.4881C20.8717 30.6746 21.1092 30.8016 21.3679 30.853C21.6265 30.9045 21.8946 30.8781 22.1382 30.7772C22.3819 30.6763 22.5901 30.5054 22.7366 30.2861C22.8831 30.0668 22.9613 29.809 22.9613 29.5453C22.9613 29.1917 22.8209 28.8526 22.5708 28.6025C22.3208 28.3525 21.9816 28.212 21.628 28.212Z" fill="black"/>
</mask>
<g mask="url(#mask0_20_308)">
<path d="M14 45C30.5685 45 44 31.5685 44 15C44 -1.56854 30.5685 -15 14 -15C-2.56854 -15 -16 -1.56854 -16 15C-16 31.5685 -2.56854 45 14 45Z" fill="#2DAF4F"/>
</g>
</svg>
