<svg width="28" height="28" viewBox="0 0 28 28" fill="none" xmlns="http://www.w3.org/2000/svg">
<g clip-path="url(#clip0_4356_8)">
<path d="M28 15.1667C28 9.2855 22.75 4.4065 15.9495 3.61317C16.1922 3.24567 16.3333 2.80583 16.3333 2.33333C16.3333 1.0465 15.2868 0 14 0C12.7132 0 11.6667 1.0465 11.6667 2.33333C11.6667 2.80583 11.8078 3.24567 12.0505 3.61317C5.25118 4.4065 1.54298e-05 9.28317 1.54298e-05 15.1445C-0.0023179 15.2145 -0.0501512 16.8548 0.934515 17.8768C1.33352 18.291 1.83402 18.543 2.42552 18.6305L3.73568 25.62C3.99468 27.0002 5.19985 28 6.60218 28H21.3955C22.799 28 24.0042 26.999 24.262 25.62L25.5733 18.6305C26.1648 18.543 26.6653 18.291 27.0643 17.8768C28.0502 16.8548 28.0023 15.2145 28 15.1667ZM12.8333 2.33333C12.8333 1.68933 13.3572 1.16667 14 1.16667C14.6428 1.16667 15.1667 1.68933 15.1667 2.33333C15.1667 2.97733 14.6428 3.5 14 3.5C13.3572 3.5 12.8333 2.97733 12.8333 2.33333ZM23.1163 25.4053C22.9612 26.2325 22.2379 26.8333 21.3955 26.8333H6.60335C5.76218 26.8333 5.03885 26.2325 4.88368 25.4053L3.62018 18.6667H4.86852C5.35035 20.0247 6.64651 21 8.16785 21C9.38468 21 10.4568 20.3758 11.0845 19.432C11.7122 20.3758 12.7843 21 14.0012 21C15.218 21 16.2902 20.3758 16.9178 19.432C17.5455 20.3758 18.6177 21 19.8345 21C21.3558 21 22.652 20.0247 23.1338 18.6667H24.3822L23.1187 25.4053H23.1163ZM26.2208 17.0695C25.9408 17.3588 25.5675 17.4988 25.0822 17.4988H22.1655C22.1655 18.7857 21.119 19.8322 19.8322 19.8322C18.5453 19.8322 17.4988 18.7857 17.4988 17.4988H16.3322C16.3322 18.7857 15.2857 19.8322 13.9988 19.8322C12.712 19.8322 11.6655 18.7857 11.6655 17.4988H10.4988C10.4988 18.7857 9.45235 19.8322 8.16551 19.8322C6.87868 19.8322 5.83218 18.7857 5.83218 17.4988H2.91552C2.42902 17.4988 2.05685 17.3588 1.77685 17.0695C1.13518 16.4092 1.16435 15.1982 1.16552 15.1655C1.16552 9.37533 6.92302 4.6655 13.9988 4.6655C21.0747 4.6655 26.8322 9.37533 26.8322 15.1853C26.8322 15.1982 26.8613 16.4092 26.2208 17.0695Z" fill="#BD9675"/>
</g>
<defs>
<clipPath id="clip0_4356_8">
<rect width="28" height="28" fill="white"/>
</clipPath>
</defs>
</svg>
